# xmcd
#
# Track frame offsets:
#	150
#	13242
#	26042
#	39611
#	50414
#	64309
#	76312
#	88456
#	101231
#	118282
#	128383
#	140459
#	149645
#	163086
#	177954
#	190107
#	201811
#	216597
#	231980
#	243526
#	254840
#	265481
#	280517
#	297243
#	310711
#	322839
#
# Disc length: 4549 seconds
#
# Revision: 1
# Processed by: cddbd v1.5.2PL0 Copyright (c) Steve Scherf et al.
# Submitted via: audiograbber 1.83.01
#
DISCID=9b11c31a
DTITLE=Various Artist - A Complete Introduction To Chess [CD 3)
DYEAR=2010
DGENRE=Blues
TTITLE0=Fontella Bass - Rescue Me
TTITLE1=Sugar Pie DeSanto - Soulful Dress
TTITLE2=John Lee Hooker - One Bourbon, One Scotch, One Beer
TTITLE3=Chuck Berry - Promised Land
TTITLE4=Howlin' Wolf - 300 Pounds Of Joy
TTITLE5=Little Milton - We're Gonna Make It
TTITLE6=Chuck Berry - No Particular Place To Go
TTITLE7=Tommy Tucker - Hi Heel Sneakers
TTITLE8=The Ramsey Lewis Trio - Wade In The Water
TTITLE9=Tony Clarke - Landslide
TTITLE10=Terry Callier - Look At Me Now
TTITLE11=Jan Bradley - Mama Didn't Lie
TTITLE12=The Jaynetts - Sally Go Round The Roses
TTITLE13=Jackie Ross - Selfish One
TTITLE14=Billy Stewart - Summertime
TTITLE15=Tony Clarke - The Entertainer
TTITLE16=Billy Stewart - Sitting In The Park
TTITLE17=The Knight Brothers - Temptation 'bout To Get Me
TTITLE18=The Radiants - Voice Your Choice
TTITLE19=Bobby Moore and The Rhythm Aces - Searching For My Love
TTITLE20=Etta James - In The Basement (Part 1)
TTITLE21=The Rawsey Lewis Trio - The 'In' Crowd
TTITLE22=Mitty Colliers - I Had A Talk With My Man Last Night
TTITLE23=Billy Stewart - I Do Love You
TTITLE24=Maurice and Mac - You Left The Water Running
TTITLE25=The Dells - Oh, What A Night
EXTD=
EXTT0=
EXTT1=
EXTT2=
EXTT3=
EXTT4=
EXTT5=
EXTT6=
EXTT7=
EXTT8=
EXTT9=
EXTT10=
EXTT11=
EXTT12=
EXTT13=
EXTT14=
EXTT15=
EXTT16=
EXTT17=
EXTT18=
EXTT19=
EXTT20=
EXTT21=
EXTT22=
EXTT23=
EXTT24=
EXTT25=
PLAYORDER=
